<svg width="22" height="14" viewBox="0 0 22 14" fill="none" xmlns="http://www.w3.org/2000/svg">
<path d="M-0.00683594 13.3151C0.143164 11.5318 0.689164 9.89014 1.63116 8.39014C2.57316 6.89014 3.82716 5.69847 5.39316 4.81514L3.54316 1.61514C3.44316 1.46514 3.41816 1.3068 3.46816 1.14014C3.51816 0.97347 3.6265 0.84847 3.79316 0.765137C3.9265 0.681803 4.0765 0.665137 4.24316 0.715137C4.40983 0.765137 4.54316 0.865137 4.64316 1.01514L6.49316 4.21514C7.9265 3.61514 9.4265 3.31514 10.9932 3.31514C12.5598 3.31514 14.0598 3.61514 15.4932 4.21514L17.3432 1.01514C17.4432 0.865137 17.5765 0.765137 17.7432 0.715137C17.9098 0.665137 18.0598 0.681803 18.1932 0.765137C18.3598 0.84847 18.4682 0.97347 18.5182 1.14014C18.5682 1.3068 18.5432 1.46514 18.4432 1.61514L16.5932 4.81514C18.1598 5.69847 19.4138 6.89014 20.3552 8.39014C21.2965 9.89014 21.8425 11.5318 21.9932 13.3151H-0.00683594ZM5.99316 10.5651C6.34316 10.5651 6.63916 10.4441 6.88116 10.2021C7.12316 9.96014 7.24383 9.66447 7.24316 9.31514C7.2425 8.9658 7.1215 8.6698 6.88016 8.42714C6.63883 8.18447 6.34316 8.0638 5.99316 8.06514C5.64316 8.06647 5.34716 8.18747 5.10516 8.42814C4.86316 8.6688 4.7425 8.96447 4.74316 9.31514C4.74383 9.6658 4.86483 9.9618 5.10616 10.2031C5.3475 10.4445 5.64316 10.5651 5.99316 10.5651ZM15.9932 10.5651C16.3432 10.5651 16.6392 10.4441 16.8812 10.2021C17.1232 9.96014 17.2438 9.66447 17.2432 9.31514C17.2425 8.9658 17.1215 8.6698 16.8802 8.42714C16.6388 8.18447 16.3432 8.0638 15.9932 8.06514C15.6432 8.06647 15.3472 8.18747 15.1052 8.42814C14.8632 8.6688 14.7425 8.96447 14.7432 9.31514C14.7438 9.6658 14.8648 9.9618 15.1062 10.2031C15.3475 10.4445 15.6432 10.5651 15.9932 10.5651Z" fill="#ffffff"/>
</svg>
