<svg width="24" height="24" viewBox="0 0 24 24" fill="none" xmlns="http://www.w3.org/2000/svg">
<g clip-path="url(#clip0_195_30)">
<path d="M19.923 7.21201C19.8103 7.44888 19.7486 7.70677 19.7419 7.969C19.7351 8.23122 19.7835 8.49194 19.8839 8.73428C19.9843 8.97663 20.1344 9.19519 20.3246 9.37585C20.5148 9.5565 20.7408 9.69521 20.988 9.78301L22.253 10.233C22.618 10.3626 22.934 10.602 23.1574 10.9184C23.3809 11.2348 23.5008 11.6127 23.5008 12C23.5008 12.3874 23.3809 12.7652 23.1574 13.0816C22.934 13.398 22.618 13.6374 22.253 13.767L20.988 14.217C20.7408 14.3048 20.5148 14.4435 20.3246 14.6242C20.1344 14.8048 19.9843 15.0234 19.8839 15.2657C19.7835 15.5081 19.7351 15.7688 19.7419 16.031C19.7486 16.2933 19.8103 16.5511 19.923 16.788L20.5 18C20.6678 18.3499 20.7228 18.7432 20.6574 19.1257C20.5921 19.5082 20.4097 19.8609 20.1353 20.1353C19.8609 20.4097 19.5082 20.5921 19.1257 20.6574C18.7432 20.7228 18.3499 20.6678 18 20.5L16.787 19.924C16.5501 19.8113 16.2922 19.7496 16.03 19.7429C15.7678 19.7361 15.5071 19.7845 15.2647 19.8849C15.0224 19.9853 14.8038 20.1355 14.6232 20.3256C14.4425 20.5158 14.3038 20.7418 14.216 20.989L13.766 22.254C13.6364 22.619 13.397 22.935 13.0806 23.1584C12.7642 23.3819 12.3864 23.5018 11.999 23.5018C11.6117 23.5018 11.2338 23.3819 10.9174 23.1584C10.601 22.935 10.3616 22.619 10.232 22.254L9.782 20.989C9.6942 20.7418 9.55549 20.5158 9.37484 20.3256C9.19419 20.1355 8.97562 19.9853 8.73328 19.8849C8.49093 19.7845 8.23022 19.7361 7.96799 19.7429C7.70577 19.7496 7.44787 19.8113 7.211 19.924L6 20.5C5.65012 20.6678 5.2568 20.7228 4.87432 20.6574C4.49184 20.5921 4.13907 20.4097 3.8647 20.1353C3.59033 19.8609 3.40789 19.5082 3.34257 19.1257C3.27724 18.7432 3.33225 18.3499 3.5 18L4.076 16.787C4.1887 16.5501 4.2504 16.2923 4.25714 16.03C4.26387 15.7678 4.21548 15.5071 4.11509 15.2647C4.01471 15.0224 3.86456 14.8038 3.67437 14.6232C3.48418 14.4425 3.25819 14.3038 3.011 14.216L1.746 13.766C1.38097 13.6364 1.06502 13.397 0.841575 13.0806C0.618134 12.7642 0.498169 12.3864 0.498169 11.999C0.498169 11.6117 0.618134 11.2338 0.841575 10.9174C1.06502 10.601 1.38097 10.3616 1.746 10.232L3.011 9.78201C3.25814 9.6943 3.48412 9.55569 3.67433 9.37515C3.86453 9.19462 4.01473 8.97617 4.1152 8.73394C4.21568 8.4917 4.26419 8.23108 4.25761 7.96892C4.25103 7.70676 4.1895 7.4489 4.077 7.21201L3.5 6.00001C3.33225 5.65013 3.27724 5.2568 3.34257 4.87433C3.40789 4.49185 3.59033 4.13908 3.8647 3.86471C4.13907 3.59034 4.49184 3.4079 4.87432 3.34258C5.2568 3.27725 5.65012 3.33226 6 3.50001L7.213 4.07601C7.44976 4.18856 7.7075 4.25017 7.96956 4.25689C8.23162 4.2636 8.49218 4.21525 8.73439 4.11498C8.9766 4.0147 9.19507 3.86472 9.3757 3.67473C9.55633 3.48475 9.69508 3.25898 9.783 3.01201L10.233 1.74701C10.3626 1.38197 10.602 1.06602 10.9184 0.842582C11.2348 0.619141 11.6127 0.499176 12 0.499176C12.3874 0.499176 12.7652 0.619141 13.0816 0.842582C13.398 1.06602 13.6374 1.38197 13.767 1.74701L14.217 3.01201C14.3048 3.25919 14.4435 3.48519 14.6242 3.67538C14.8048 3.86557 15.0234 4.01571 15.2657 4.1161C15.5081 4.21649 15.7688 4.26488 16.031 4.25814C16.2932 4.25141 16.5511 4.1897 16.788 4.07701L18 3.50001C18.3499 3.33226 18.7432 3.27725 19.1257 3.34258C19.5082 3.4079 19.8609 3.59034 20.1353 3.86471C20.4097 4.13908 20.5921 4.49185 20.6574 4.87433C20.7228 5.2568 20.6678 5.65013 20.5 6.00001L19.923 7.21201Z" fill="#DFF9FF"/>
<path d="M22.253 10.233L20.988 9.78299C20.7408 9.69519 20.5148 9.55648 20.3246 9.37582C20.1345 9.19517 19.9843 8.9766 19.8839 8.73426C19.7835 8.49192 19.7351 8.2312 19.7419 7.96897C19.7486 7.70675 19.8103 7.44886 19.923 7.21199L20.5 5.99999C20.6614 5.65873 20.7157 5.2766 20.6557 4.90389C20.5958 4.53118 20.4243 4.18537 20.164 3.91199L3.91101 20.163C4.18437 20.4237 4.53031 20.5954 4.90323 20.6556C5.27615 20.7157 5.65854 20.6615 6.00001 20.5L7.21301 19.924C7.44988 19.8113 7.70777 19.7496 7.97 19.7429C8.23222 19.7361 8.49294 19.7845 8.73528 19.8849C8.97763 19.9853 9.19619 20.1354 9.37685 20.3256C9.5575 20.5158 9.69621 20.7418 9.78401 20.989L10.234 22.254C10.3636 22.619 10.603 22.935 10.9194 23.1584C11.2358 23.3819 11.6137 23.5018 12.001 23.5018C12.3884 23.5018 12.7662 23.3819 13.0826 23.1584C13.399 22.935 13.6384 22.619 13.768 22.254L14.218 20.989C14.3058 20.7418 14.4445 20.5158 14.6252 20.3256C14.8058 20.1354 15.0244 19.9853 15.2667 19.8849C15.5091 19.7845 15.7698 19.7361 16.032 19.7429C16.2942 19.7496 16.5521 19.8113 16.789 19.924L18 20.5C18.3499 20.6677 18.7432 20.7227 19.1257 20.6574C19.5082 20.5921 19.8609 20.4097 20.1353 20.1353C20.4097 19.8609 20.5921 19.5082 20.6574 19.1257C20.7228 18.7432 20.6678 18.3499 20.5 18L19.924 16.787C19.8113 16.5501 19.7496 16.2922 19.7429 16.03C19.7361 15.7678 19.7845 15.5071 19.8849 15.2647C19.9853 15.0224 20.1355 14.8038 20.3256 14.6232C20.5158 14.4425 20.7418 14.3038 20.989 14.216L22.254 13.766C22.619 13.6364 22.935 13.397 23.1584 13.0806C23.3819 12.7642 23.5018 12.3863 23.5018 11.999C23.5018 11.6116 23.3819 11.2338 23.1584 10.9174C22.935 10.601 22.619 10.3616 22.254 10.232L22.253 10.233Z" fill="#9FEAFF"/>
<path d="M19.923 7.21201C19.8103 7.44888 19.7486 7.70677 19.7419 7.969C19.7351 8.23122 19.7835 8.49194 19.8839 8.73428C19.9843 8.97663 20.1344 9.19519 20.3246 9.37585C20.5148 9.5565 20.7408 9.69521 20.988 9.78301L22.253 10.233C22.618 10.3626 22.934 10.602 23.1574 10.9184C23.3809 11.2348 23.5008 11.6127 23.5008 12C23.5008 12.3874 23.3809 12.7652 23.1574 13.0816C22.934 13.398 22.618 13.6374 22.253 13.767L20.988 14.217C20.7408 14.3048 20.5148 14.4435 20.3246 14.6242C20.1344 14.8048 19.9843 15.0234 19.8839 15.2657C19.7835 15.5081 19.7351 15.7688 19.7419 16.031C19.7486 16.2933 19.8103 16.5511 19.923 16.788L20.5 18C20.6678 18.3499 20.7228 18.7432 20.6574 19.1257C20.5921 19.5082 20.4097 19.8609 20.1353 20.1353C19.8609 20.4097 19.5082 20.5921 19.1257 20.6574C18.7432 20.7228 18.3499 20.6678 18 20.5L16.787 19.924C16.5501 19.8113 16.2922 19.7496 16.03 19.7429C15.7678 19.7361 15.5071 19.7845 15.2647 19.8849C15.0224 19.9853 14.8038 20.1355 14.6232 20.3256C14.4425 20.5158 14.3038 20.7418 14.216 20.989L13.766 22.254C13.6364 22.619 13.397 22.935 13.0806 23.1584C12.7642 23.3819 12.3864 23.5018 11.999 23.5018C11.6117 23.5018 11.2338 23.3819 10.9174 23.1584C10.601 22.935 10.3616 22.619 10.232 22.254L9.782 20.989C9.6942 20.7418 9.55549 20.5158 9.37484 20.3256C9.19419 20.1355 8.97562 19.9853 8.73328 19.8849C8.49093 19.7845 8.23022 19.7361 7.96799 19.7429C7.70577 19.7496 7.44787 19.8113 7.211 19.924L6 20.5C5.65012 20.6678 5.2568 20.7228 4.87432 20.6574C4.49184 20.5921 4.13907 20.4097 3.8647 20.1353C3.59033 19.8609 3.40789 19.5082 3.34257 19.1257C3.27724 18.7432 3.33225 18.3499 3.5 18L4.076 16.787C4.1887 16.5501 4.2504 16.2923 4.25714 16.03C4.26387 15.7678 4.21548 15.5071 4.11509 15.2647C4.01471 15.0224 3.86456 14.8038 3.67437 14.6232C3.48418 14.4425 3.25819 14.3038 3.011 14.216L1.746 13.766C1.38097 13.6364 1.06502 13.397 0.841575 13.0806C0.618134 12.7642 0.498169 12.3864 0.498169 11.999C0.498169 11.6117 0.618134 11.2338 0.841575 10.9174C1.06502 10.601 1.38097 10.3616 1.746 10.232L3.011 9.78201C3.25814 9.6943 3.48412 9.55569 3.67433 9.37515C3.86453 9.19462 4.01473 8.97617 4.1152 8.73394C4.21568 8.4917 4.26419 8.23108 4.25761 7.96892C4.25103 7.70676 4.1895 7.4489 4.077 7.21201L3.5 6.00001C3.33225 5.65013 3.27724 5.2568 3.34257 4.87433C3.40789 4.49185 3.59033 4.13908 3.8647 3.86471C4.13907 3.59034 4.49184 3.4079 4.87432 3.34258C5.2568 3.27725 5.65012 3.33226 6 3.50001L7.213 4.07601C7.44976 4.18856 7.7075 4.25017 7.96956 4.25689C8.23162 4.2636 8.49218 4.21525 8.73439 4.11498C8.9766 4.0147 9.19507 3.86472 9.3757 3.67473C9.55633 3.48475 9.69508 3.25898 9.783 3.01201L10.233 1.74701C10.3626 1.38197 10.602 1.06602 10.9184 0.842582C11.2348 0.619141 11.6127 0.499176 12 0.499176C12.3874 0.499176 12.7652 0.619141 13.0816 0.842582C13.398 1.06602 13.6374 1.38197 13.767 1.74701L14.217 3.01201C14.3048 3.25919 14.4435 3.48519 14.6242 3.67538C14.8048 3.86557 15.0234 4.01571 15.2657 4.1161C15.5081 4.21649 15.7688 4.26488 16.031 4.25814C16.2932 4.25141 16.5511 4.1897 16.788 4.07701L18 3.50001C18.3499 3.33226 18.7432 3.27725 19.1257 3.34258C19.5082 3.4079 19.8609 3.59034 20.1353 3.86471C20.4097 4.13908 20.5921 4.49185 20.6574 4.87433C20.7228 5.2568 20.6678 5.65013 20.5 6.00001L19.923 7.21201Z" stroke="#00303E" stroke-linecap="round" stroke-linejoin="round"/>
<path d="M15.5 9.67999V15.5H8.5V9.67999L11.33 7.10999C11.5123 6.94117 11.7516 6.84738 12 6.84738C12.2484 6.84738 12.4877 6.94117 12.67 7.10999L15.5 9.67999Z" fill="white" stroke="#00303E" stroke-linecap="round" stroke-linejoin="round"/>
<path d="M10.5 15.5V13C10.5 12.6022 10.658 12.2206 10.9393 11.9393C11.2206 11.658 11.6022 11.5 12 11.5C12.3978 11.5 12.7794 11.658 13.0607 11.9393C13.342 12.2206 13.5 12.6022 13.5 13V15.5H10.5Z" fill="#9FEAFF" stroke="#00303E" stroke-linecap="round" stroke-linejoin="round"/>
<path d="M17.5 11.5L15.5 9.67999" stroke="#00303E" stroke-linecap="round" stroke-linejoin="round"/>
<path d="M8.5 9.67999L6.5 11.5" stroke="#00303E" stroke-linecap="round" stroke-linejoin="round"/>
</g>
<defs>
<clipPath id="clip0_195_30">
<rect width="24" height="24" fill="white"/>
</clipPath>
</defs>
</svg>
