<svg width="24" height="24" viewBox="0 0 24 24" fill="none" xmlns="http://www.w3.org/2000/svg">
<g clip-path="url(#clip0_195_39)">
<path d="M9 23.5C10.6811 23.5 12.3245 23.0015 13.7223 22.0675C15.1202 21.1335 16.2096 19.806 16.853 18.2528C17.4963 16.6996 17.6647 14.9906 17.3367 13.3417C17.0087 11.6929 16.1992 10.1783 15.0104 8.9896C13.8217 7.80085 12.3071 6.9913 10.6583 6.66333C9.00943 6.33535 7.30036 6.50368 5.74719 7.14703C4.19402 7.79037 2.8665 8.87984 1.93251 10.2777C0.998516 11.6755 0.5 13.3189 0.5 15C0.5 17.2543 1.39553 19.4164 2.98959 21.0104C4.58365 22.6045 6.74566 23.5 9 23.5Z" fill="#DFF9FF"/>
<path d="M8.99999 20.271C7.02644 20.2703 5.11465 19.5828 3.59257 18.3266C2.07048 17.0703 1.03296 15.3236 0.657988 13.386C0.417648 14.617 0.452738 15.886 0.760742 17.1019C1.06875 18.3178 1.64203 19.4505 2.43947 20.4187C3.2369 21.3869 4.23873 22.1665 5.37308 22.7018C6.50743 23.2371 7.74619 23.5147 9.00049 23.5147C10.2548 23.5147 11.4935 23.2371 12.6279 22.7018C13.7622 22.1665 14.7641 21.3869 15.5615 20.4187C16.3589 19.4505 16.9322 18.3178 17.2402 17.1019C17.5482 15.886 17.5833 14.617 17.343 13.386C16.968 15.3238 15.9303 17.0706 14.408 18.3269C12.8857 19.5831 10.9737 20.2705 8.99999 20.271Z" fill="#9FEAFF"/>
<path d="M9 23.5C10.6811 23.5 12.3245 23.0015 13.7223 22.0675C15.1202 21.1335 16.2096 19.806 16.853 18.2528C17.4963 16.6996 17.6647 14.9906 17.3367 13.3417C17.0087 11.6929 16.1992 10.1783 15.0104 8.9896C13.8217 7.80085 12.3071 6.9913 10.6583 6.66333C9.00943 6.33535 7.30036 6.50368 5.74719 7.14703C4.19402 7.79037 2.8665 8.87984 1.93251 10.2777C0.998516 11.6755 0.5 13.3189 0.5 15C0.5 17.2543 1.39553 19.4164 2.98959 21.0104C4.58365 22.6045 6.74566 23.5 9 23.5Z" stroke="#00303E" stroke-linecap="round" stroke-linejoin="round"/>
<path d="M9 20.5C10.0878 20.5 11.1512 20.1774 12.0556 19.5731C12.9601 18.9687 13.6651 18.1098 14.0813 17.1048C14.4976 16.0998 14.6065 14.9939 14.3943 13.927C14.1821 12.8601 13.6583 11.8801 12.8891 11.1109C12.1199 10.3417 11.1399 9.8179 10.073 9.60568C9.0061 9.39346 7.90023 9.50238 6.89524 9.91867C5.89025 10.3349 5.03126 11.0399 4.42692 11.9444C3.82257 12.8488 3.5 13.9122 3.5 15C3.5 16.4587 4.07946 17.8576 5.11091 18.8891C6.14236 19.9205 7.54131 20.5 9 20.5Z" fill="white" stroke="#00303E" stroke-linecap="round" stroke-linejoin="round"/>
<path d="M9 17.5C9.49445 17.5 9.9778 17.3534 10.3889 17.0787C10.8 16.804 11.1205 16.4135 11.3097 15.9567C11.4989 15.4999 11.5484 14.9972 11.452 14.5123C11.3555 14.0273 11.1174 13.5819 10.7678 13.2322C10.4181 12.8826 9.97268 12.6445 9.48773 12.548C9.00277 12.4516 8.50011 12.5011 8.04329 12.6903C7.58648 12.8795 7.19603 13.2 6.92133 13.6111C6.64662 14.0222 6.5 14.5055 6.5 15C6.5 15.663 6.76339 16.2989 7.23223 16.7678C7.70107 17.2366 8.33696 17.5 9 17.5Z" fill="#9FEAFF" stroke="#00303E" stroke-linecap="round" stroke-linejoin="round"/>
<path d="M0.5 23.5L2.99 21.01" stroke="#00303E" stroke-linecap="round" stroke-linejoin="round"/>
<path d="M15.011 21.011L17.5 23.5" stroke="#00303E" stroke-linecap="round" stroke-linejoin="round"/>
<path d="M9 14.75C9.04945 14.75 9.09778 14.7647 9.13889 14.7921C9.18 14.8196 9.21205 14.8586 9.23097 14.9043C9.24989 14.95 9.25484 15.0003 9.2452 15.0488C9.23555 15.0973 9.21174 15.1418 9.17678 15.1768C9.14181 15.2117 9.09727 15.2356 9.04877 15.2452C9.00028 15.2548 8.95001 15.2499 8.90433 15.231C8.85865 15.212 8.8196 15.18 8.79213 15.1389C8.76466 15.0978 8.75 15.0494 8.75 15C8.75 14.9337 8.77634 14.8701 8.82322 14.8232C8.87011 14.7763 8.9337 14.75 9 14.75Z" stroke="#00303E" stroke-linecap="round" stroke-linejoin="round"/>
<path d="M20.5 3.5H23.5C23.5 3.5 21 11 17 7C13 3 20.5 0.5 20.5 0.5V3.5Z" fill="#9FEAFF"/>
<path d="M17 7C13 3 20.5 0.5 20.5 0.5V3.5L17 7Z" fill="#DFF9FF"/>
<path d="M20.5 3.5H23.5C23.5 3.5 21 11 17 7C13 3 20.5 0.5 20.5 0.5V3.5Z" stroke="#00303E" stroke-linecap="round" stroke-linejoin="round"/>
<path d="M9 15L20.5 3.5" stroke="#00303E" stroke-linecap="round" stroke-linejoin="round"/>
<path d="M18.5 5.49999V1.40799" stroke="#00303E" stroke-linecap="round" stroke-linejoin="round"/>
</g>
<defs>
<clipPath id="clip0_195_39">
<rect width="24" height="24" fill="white"/>
</clipPath>
</defs>
</svg>
