<svg width="16" height="18" viewBox="0 0 16 18" fill="none" xmlns="http://www.w3.org/2000/svg">
<path d="M12.8624 17.28C11.8824 18.23 10.8124 18.08 9.78242 17.63C8.69242 17.17 7.69242 17.15 6.54242 17.63C5.10242 18.25 4.34242 18.07 3.48242 17.28C-1.39758 12.25 -0.67758 4.59 4.86242 4.31C6.21242 4.38 7.15242 5.05 7.94242 5.11C9.12242 4.87 10.2524 4.18 11.5124 4.27C13.0224 4.39 14.1624 4.99 14.9124 6.07C11.7924 7.94 12.5324 12.05 15.3924 13.2C14.8224 14.7 14.0824 16.19 12.8524 17.29L12.8624 17.28ZM7.84242 4.25C7.69242 2.02 9.50242 0.18 11.5824 0C11.8724 2.58 9.24242 4.5 7.84242 4.25Z" fill="#ffffff"/>
</svg>
